<svg width="24" height="24" viewBox="0 0 24 24" fill="none" xmlns="http://www.w3.org/2000/svg">
<path d="M18.8599 12.2339C17.4204 8.38701 12.2951 8.17958 13.5329 2.58839C13.6246 2.17353 13.1936 1.85296 12.8452 2.06982C9.51694 4.08755 7.12389 8.13244 9.13185 13.4313C9.29689 13.8651 8.80178 14.2705 8.44419 13.9876C6.78465 12.6959 6.61044 10.8385 6.75714 9.50902C6.81215 9.01873 6.18867 8.78302 5.92278 9.18845C5.2993 10.169 4.66666 11.753 4.66666 14.1385C5.01507 19.4185 9.3519 21.0403 10.9106 21.2477C13.1386 21.54 15.55 21.1157 17.2829 19.4845C19.19 17.6648 19.8868 14.7608 18.8599 12.2339ZM10.3513 16.9765C11.6716 16.6465 12.3501 15.6659 12.5335 14.7985C12.836 13.4502 11.6533 12.1302 12.451 9.99931C12.7535 11.7625 15.4491 12.8656 15.4491 14.7891C15.5225 17.1745 13.0102 19.2205 10.3513 16.9765Z" fill="white"/>
</svg>
