<svg width="76" height="76" viewBox="0 0 76 76" fill="none" xmlns="http://www.w3.org/2000/svg">
<path opacity="0.9" d="M14.3841 7.26233C18.4565 3.95878 23.2116 1.51019 28.2585 0.0962052C28.2605 15.8987 28.2585 31.6995 28.2585 47.5017C44.173 47.5038 60.0872 47.5 76 47.5017C74.2172 54.0852 70.636 60.1642 65.7665 64.9288C61.2304 69.394 55.5767 72.7066 49.4663 74.4745C42.7237 76.4331 35.4467 76.5057 28.6644 74.6923C22.3041 72.9915 16.3949 69.6337 11.6832 65.0267C6.23756 59.7394 2.39529 52.8109 0.837355 45.3727C-0.66622 38.2791 -0.140863 30.7608 2.3808 23.9596C4.77926 17.4452 8.97478 11.6059 14.3841 7.26233ZM48.7289 0C55.5296 1.8115 61.7939 5.55427 66.6542 10.6493C71.0273 15.2216 74.2589 20.8848 75.9491 26.9891C66.877 26.9927 57.8031 26.9909 48.7289 26.9909C48.7289 17.9933 48.7289 8.99757 48.7289 0Z" fill="white"/>
</svg>
