<svg width="24" height="24" viewBox="0 0 24 24" fill="none" xmlns="http://www.w3.org/2000/svg">
<g clip-path="url(#clip0_16_75)">
<path fill-rule="evenodd" clip-rule="evenodd" d="M12 24C5.37188 24 0 18.6281 0 12C0 9.37297 0.843865 6.94329 2.27535 4.9672C4.49231 4.65519 6.70928 4.4484 8.92624 4.34795C11.2057 4.24466 13.4852 4.25377 15.7646 4.37647C15.8117 4.41412 13.214 7.29412 10.014 10.4282C6.83286 13.5529 3.95286 16.4424 3.6705 16.7812C3.65168 19.0777 5.59992 19.9624 6.64462 20.1694C11.4841 20.6393 16.37 20.4721 21.2096 19.6941C19.0085 22.3261 15.7 24 12 24ZM22.1053 18.4751C23.3045 16.6072 24 14.3849 24 12C24 5.37188 18.6281 0 12 0C8.58472 0 5.50297 1.42626 3.31782 3.71573C4.04579 3.59812 4.76638 3.50329 5.48697 3.41647C9.36462 2.81412 16.1882 3.05883 17.1105 3.24706C18.5693 3.42589 20.1882 4.48942 20.2917 6.69177C20.2894 6.69177 20.1265 6.85792 19.8353 7.15506C18.9298 8.07879 16.7834 10.2685 14.3623 12.6682C11.134 15.84 8.37639 18.88 8.39521 18.9082C8.37737 18.9291 8.36488 18.9461 8.35297 18.9624C8.32719 18.9977 8.3041 19.0293 8.23521 19.0871C12.8241 19.3399 17.4632 19.1354 22.1053 18.4751Z" fill="white"/>
</g>
<defs>
<clipPath id="clip0_16_75">
<rect width="24" height="24" fill="white"/>
</clipPath>
</defs>
</svg>
